<svg width="100" height="84" viewBox="0 0 100 84" fill="none" xmlns="http://www.w3.org/2000/svg">
<path d="M88.8889 9.8201C90.4167 9.8201 91.6667 11.1494 91.6667 12.7741V71.8547C91.6667 73.4794 90.4167 74.8087 88.8889 74.8087H11.1111C9.58333 74.8087 8.33333 73.4794 8.33333 71.8547V12.7741C8.33333 11.1494 9.58333 9.8201 11.1111 9.8201H88.8889ZM11.1111 0.958008C4.98264 0.958008 0 6.2568 0 12.7741V71.8547C0 78.372 4.98264 83.6708 11.1111 83.6708H88.8889C95.0174 83.6708 100 78.372 100 71.8547V12.7741C100 6.2568 95.0174 0.958008 88.8889 0.958008H11.1111ZM36.1111 42.3144C39.058 42.3144 41.8841 41.0695 43.9679 38.8536C46.0516 36.6376 47.2222 33.6321 47.2222 30.4983C47.2222 27.3645 46.0516 24.359 43.9679 22.143C41.8841 19.9271 39.058 18.6822 36.1111 18.6822C33.1643 18.6822 30.3381 19.9271 28.2544 22.143C26.1706 24.359 25 27.3645 25 30.4983C25 33.6321 26.1706 36.6376 28.2544 38.8536C30.3381 41.0695 33.1643 42.3144 36.1111 42.3144ZM30.5556 48.2225C22.8819 48.2225 16.6667 54.8321 16.6667 62.9926C16.6667 64.6173 17.9167 65.9467 19.4444 65.9467H52.7778C54.3056 65.9467 55.5556 64.6173 55.5556 62.9926C55.5556 54.8321 49.3403 48.2225 41.6667 48.2225H30.5556ZM65.2778 21.6362C62.9688 21.6362 61.1111 23.6117 61.1111 26.0673C61.1111 28.5228 62.9688 30.4983 65.2778 30.4983H79.1667C81.4757 30.4983 83.3333 28.5228 83.3333 26.0673C83.3333 23.6117 81.4757 21.6362 79.1667 21.6362H65.2778ZM65.2778 39.3604C62.9688 39.3604 61.1111 41.3359 61.1111 43.7914C61.1111 46.247 62.9688 48.2225 65.2778 48.2225H79.1667C81.4757 48.2225 83.3333 46.247 83.3333 43.7914C83.3333 41.3359 81.4757 39.3604 79.1667 39.3604H65.2778Z" fill="#E9F3FF"/>
</svg>
