<svg width="100" height="88" viewBox="0 0 100 88" fill="none" xmlns="http://www.w3.org/2000/svg">
<path d="M6.25 0.240356C9.70703 0.240356 12.5 3.02429 12.5 6.47014V71.8829C12.5 73.5961 13.9062 74.9978 15.625 74.9978H93.75C97.207 74.9978 100 77.7817 100 81.2276C100 84.6734 97.207 87.4573 93.75 87.4573H15.625C6.99219 87.4573 0 80.4878 0 71.8829V6.47014C0 3.02429 2.79297 0.240356 6.25 0.240356ZM31.25 37.6191C34.707 37.6191 37.5 40.403 37.5 43.8488V56.3084C37.5 59.7543 34.707 62.5382 31.25 62.5382C27.793 62.5382 25 59.7543 25 56.3084V43.8488C25 40.403 27.793 37.6191 31.25 37.6191ZM56.25 25.1595V56.3084C56.25 59.7543 53.457 62.5382 50 62.5382C46.543 62.5382 43.75 59.7543 43.75 56.3084V25.1595C43.75 21.7136 46.543 18.9297 50 18.9297C53.457 18.9297 56.25 21.7136 56.25 25.1595ZM68.75 31.3893C72.207 31.3893 75 34.1732 75 37.6191V56.3084C75 59.7543 72.207 62.5382 68.75 62.5382C65.293 62.5382 62.5 59.7543 62.5 56.3084V37.6191C62.5 34.1732 65.293 31.3893 68.75 31.3893ZM93.75 12.6999V56.3084C93.75 59.7543 90.957 62.5382 87.5 62.5382C84.043 62.5382 81.25 59.7543 81.25 56.3084V12.6999C81.25 9.25408 84.043 6.47014 87.5 6.47014C90.957 6.47014 93.75 9.25408 93.75 12.6999Z" fill="#E9F3FF"/>
</svg>
