<svg width="100" height="80" viewBox="0 0 100 80" fill="none" xmlns="http://www.w3.org/2000/svg">
<path d="M13.7842 48.3535C15.3154 45.5035 14.8467 41.9993 12.6124 39.6632C9.28437 36.1747 7.50318 31.9853 7.50318 27.6246C7.50318 17.7351 17.4716 7.68996 32.5023 7.68996C47.5331 7.68996 57.5015 17.7351 57.5015 27.6246C57.5015 37.514 47.5331 47.5592 32.5023 47.5592C30.4555 47.5592 28.4712 47.3568 26.5963 46.9986C24.9713 46.6871 23.2839 46.9051 21.7996 47.6527C21.159 47.9797 20.5027 48.2912 19.8309 48.5871C17.331 49.7084 14.6904 50.6896 12.0343 51.3904C12.4718 50.674 12.878 49.9732 13.2686 49.2723C13.4405 48.9764 13.6123 48.665 13.7686 48.3535H13.7842ZM0.0034355 27.6246C0.0034355 34.1345 2.69084 40.0993 7.17506 44.8026C7.03444 45.0674 6.8782 45.3477 6.73758 45.5969C5.12826 48.4625 3.25332 51.2814 1.01903 53.7109C-0.012189 54.8011 -0.277805 56.3896 0.3003 57.7446C0.909654 59.1306 2.25336 60.0184 3.75331 60.0184C10.4718 60.0184 17.2685 57.947 22.9245 55.3929C23.6745 55.0503 24.4245 54.6921 25.1432 54.3339C27.5025 54.8011 29.9712 55.0347 32.5023 55.0347C50.4548 55.0347 65.0012 42.7624 65.0012 27.6246C65.0012 12.4867 50.4548 0.214478 32.5023 0.214478C14.5498 0.214478 0.0034355 12.4867 0.0034355 27.6246ZM67.5011 74.9693C70.0323 74.9693 72.4853 74.7201 74.8602 74.2685C75.579 74.6267 76.3289 74.9849 77.0789 75.3275C82.735 77.8816 89.5316 79.953 96.2501 79.953C97.7501 79.953 99.0938 79.0653 99.6875 77.6948C100.281 76.3243 100 74.7357 98.9688 73.6611C96.7501 71.2316 94.8752 68.4127 93.2502 65.5471C93.1096 65.2823 92.9534 65.0176 92.8127 64.7528C97.3126 60.0339 100 54.0691 100 47.5592C100 32.8574 86.2661 20.8499 69.0323 20.1803C69.6729 22.5475 70.001 25.0393 70.001 27.6246V27.718C83.6256 28.7615 92.5003 38.2304 92.5003 47.5592C92.5003 51.9199 90.7191 56.1093 87.3911 59.5823C85.1568 61.9184 84.688 65.4381 86.2192 68.2725C86.3911 68.584 86.563 68.8955 86.7192 69.1914C87.1098 69.8922 87.5317 70.593 87.9535 71.3094C85.2974 70.6086 82.6568 69.643 80.1569 68.5061C79.4851 68.2102 78.8289 67.8988 78.1883 67.5717C76.7039 66.8242 75.0165 66.6061 73.3915 66.9176C71.501 67.2914 69.5323 67.4783 67.4855 67.4783C57.8452 67.4783 50.2986 63.3512 46.1112 57.7757C43.6113 58.6167 40.9864 59.2397 38.299 59.6134C43.5957 68.7086 54.6891 74.9693 67.5011 74.9693Z" fill="#E9F3FF"/>
</svg>
